# xmcd CD database file
#
# Track frame offsets:
#	150
#	18151
#	38192
#	56846
#	75902
#	93276
#	112976
#	133170
#	148445
#	168506
#	183394
#	198599
#	221994
#	238310
#	254136
#
# Disc length: 3607 seconds
#
# Revision: 0
# Processed by: cddbd v1.5.2PL0 Copyright (c) Steve Scherf et al.
# Submitted via: CDex 1.70beta2
#
DISCID=e40e150f
DTITLE=Harry Manx - Isle of MAnx
DYEAR=2010
DGENRE=Blues
TTITLE0=Tijuana
TTITLE1=Coat of Mail
TTITLE2=The Great Unknown
TTITLE3=True to Yourself
TTITLE4=Roses Given
TTITLE5=A Single Spark
TTITLE6=Your Eyes Have Seen
TTITLE7=Don't Forget to Miss Me
TTITLE8=Make Way for the Living
TTITLE9=Lay Down my Worries
TTITLE10=Your Sweet Name
TTITLE11=Bring That Thing
TTITLE12=Dew on Roses
TTITLE13=I'm Sitting on Top of the World
TTITLE14=Forgive and Remember
EXTD=YEAR: 2010
EXTT0=
EXTT1=
EXTT2=
EXTT3=
EXTT4=
EXTT5=
EXTT6=
EXTT7=
EXTT8=
EXTT9=
EXTT10=
EXTT11=
EXTT12=
EXTT13=
EXTT14=
PLAYORDER=
